<?xml version="1.0" standalone="no"?>
<!DOCTYPE svg PUBLIC "-//W3C//DTD SVG 20010904//EN"
 "http://www.w3.org/TR/2001/REC-SVG-20010904/DTD/svg10.dtd">
<svg version="1.0" xmlns="http://www.w3.org/2000/svg"
 width="561.000000pt" height="316.000000pt" viewBox="0 0 561.000000 316.000000"
 preserveAspectRatio="xMidYMid meet">
<g transform="translate(0.000000,316.000000) scale(0.100000,-0.100000)"
fill="#000000" stroke="none">
<path d="M2202 3089 c-133 -26 -243 -149 -280 -314 -7 -27 -35 -176 -63 -330
-41 -227 -50 -294 -47 -356 5 -93 40 -172 104 -236 71 -70 283 -163 549 -238
l90 -25 -92 5 c-95 5 -243 33 -343 65 -155 49 -296 134 -399 238 l-64 65 -111
-17 c-424 -66 -779 -189 -899 -312 -63 -63 -77 -144 -37 -210 132 -212 829
-386 1745 -435 273 -14 940 -6 1185 15 609 53 1052 149 1313 283 91 47 170
114 187 158 14 38 12 102 -4 134 -80 154 -463 295 -1036 381 -80 12 -145 23
-146 24 0 0 -17 93 -38 206 -40 227 -100 482 -142 605 -86 257 -154 300 -469
298 -88 -1 -225 -6 -305 -12 -200 -15 -387 -13 -500 4 -105 16 -135 17 -198 4z"/>
<path d="M1845 825 c-104 -23 -215 -82 -215 -114 0 -32 60 -118 122 -176 70
-66 148 -111 248 -145 92 -31 271 -39 360 -16 70 18 177 72 193 97 16 26 -31
106 -104 180 -147 148 -397 220 -604 174z"/>
<path d="M3520 825 c-187 -41 -352 -156 -420 -292 -28 -57 -23 -66 56 -110 94
-51 170 -66 304 -60 178 8 310 61 428 172 63 58 122 144 122 176 0 23 -81 73
-160 99 -84 29 -239 36 -330 15z"/>
</g>
</svg>
